 <svg  version="1.0" xmlns="http://www.w3.org/2000/svg"  width="500.000000pt" height="218.000000pt" viewBox="0 0 500.000000 218.000000"  preserveAspectRatio="xMidYMid meet">  <g transform="translate(0.000000,218.000000) scale(0.100000,-0.100000)" fill="#f4ea6d" stroke="none"> <path d="M1523 2161 c-6 -10 -37 -30 -70 -45 -81 -39 -117 -68 -147 -122 -33 -58 -34 -119 -3 -193 23 -56 47 -78 47 -43 0 22 62 82 108 106 16 8 41 29 56 46 23 28 26 41 26 102 l0 71 -30 -45 c-17 -26 -51 -62 -75 -82 l-44 -37 56 83 c31 46 65 102 75 126 20 45 21 65 1 33z"/> <path d="M540 2162 c0 -7 -37 -30 -82 -53 -86 -43 -106 -61 -139 -122 l-20 -38 34 -39 c19 -21 38 -52 42 -69 4 -17 9 -31 11 -31 3 0 20 11 38 25 18 14 36 25 40 25 20 0 68 45 81 77 17 40 20 143 5 143 -5 0 -10 -5 -10 -12 0 -19 -63 -95 -94 -113 -33 -20 -32 -19 35 76 44 61 75 127 64 137 -3 3 -5 0 -5 -6z m-120 -236 c0 -2 -8 -10 -17 -17 -16 -13 -17 -12 -4 4 13 16 21 21 21 13z"/> <path d="M2893 2157 c-4 -8 -40 -30 -79 -50 -39 -20 -87 -53 -107 -76 -37 -41 -37 -42 -21 -73 16 -30 15 -80 -1 -148 -5 -18 0 -33 13 -50 20 -24 21 -24 27 -5 13 41 23 51 93 98 39 26 78 60 85 75 15 30 23 142 10 142 -4 -1 -23 -22 -42 -48 -19 -26 -55 -65 -79 -87 -44 -40 -44 -39 25 60 39 55 75 115 82 134 12 36 9 53 -6 28z"/> <path d="M1015 2143 c-11 -8 -45 -26 -75 -39 -134 -61 -181 -172 -127 -303 22 -53 47 -78 47 -46 0 29 33 67 87 97 85 48 103 76 103 160 l0 70 -38 -50 c-21 -28 -60 -70 -87 -94 -40 -34 -45 -37 -27 -13 84 108 151 219 141 230 -2 2 -13 -3 -24 -12z"/> <path d="M2037 2153 c-4 -6 -40 -27 -80 -46 -78 -37 -101 -59 -137 -124 -19 -34 -22 -51 -17 -97 6 -59 39 -146 56 -146 6 0 11 9 11 19 0 25 55 80 96 97 17 7 45 29 63 49 29 33 31 41 31 108 l0 72 -19 -30 c-27 -41 -58 -76 -111 -121 -39 -35 -42 -36 -21 -9 96 125 146 206 138 228 -2 8 -5 8 -10 0z"/> <path d="M2447 2152 c-5 -7 -39 -28 -77 -47 -61 -29 -118 -78 -143 -121 -17 -29 -10 -121 12 -183 25 -66 37 -75 47 -36 7 27 49 66 113 105 56 33 68 54 76 133 8 70 -3 89 -26 45 -6 -13 -41 -52 -77 -87 l-65 -65 57 80 c69 97 98 150 94 172 -3 13 -5 14 -11 4z"/> <path d="M3318 2115 c-89 -46 -122 -75 -149 -127 -25 -48 -24 -109 2 -186 20 -59 49 -85 49 -43 0 27 37 69 80 91 21 11 54 35 74 53 35 34 36 36 36 108 -1 66 -2 72 -15 54 -33 -48 -73 -93 -113 -129 l-43 -40 33 50 c19 27 49 69 67 94 31 42 66 110 59 114 -2 1 -38 -16 -80 -39z"/> <path d="M3876 2151 c-5 -7 -40 -27 -80 -45 -39 -18 -81 -44 -93 -57 -68 -76 -81 -164 -38 -257 22 -48 45 -62 45 -28 0 18 59 75 101 96 20 11 48 33 63 50 23 28 26 40 26 103 l0 72 -34 -50 c-18 -28 -53 -65 -76 -84 l-43 -34 44 62 c60 86 101 159 97 173 -3 9 -6 9 -12 -1z"/> <path d="M4242 1965 c-64 -15 -96 -43 -116 -101 l-15 -44 28 0 c15 0 56 -11 91 -25 88 -34 135 -33 194 6 34 23 46 37 43 50 -3 11 2 19 14 22 11 3 19 11 19 19 0 15 -91 65 -132 73 -16 3 -38 7 -50 9 -13 2 -47 -2 -76 -9z m85 -101 c-3 -3 -12 -4 -19 -1 -8 3 -5 6 6 6 11 1 17 -2 13 -5z m106 -11 c-13 -2 -33 -2 -45 0 -13 2 -3 4 22 4 25 0 35 -2 23 -4z"/> <path d="M3 1740 l2 -185 45 -22 c24 -13 52 -23 62 -23 15 0 15 3 2 28 -18 36 -18 48 6 117 27 79 26 122 -6 170 -32 47 -65 85 -74 85 -4 0 -6 -42 -5 -92 l3 -93 -7 80 c-4 44 -12 89 -19 100 -9 16 -11 -18 -9 -165z"/> <path d="M320 1792 c0 -4 7 -18 16 -31 13 -18 18 -20 25 -10 17 27 10 49 -16 49 -14 0 -25 -3 -25 -8z"/> <path d="M2524 1770 c-25 -10 -74 -66 -74 -86 0 -17 -3 -17 -64 1 -27 8 -79 15 -115 15 -138 -1 -213 -70 -274 -250 -8 -25 -32 -79 -52 -119 -31 -61 -40 -72 -49 -60 -30 41 -96 28 -96 -19 0 -27 53 -112 70 -112 4 0 10 -32 12 -70 7 -92 51 -185 113 -236 24 -19 53 -51 64 -70 16 -26 27 -34 49 -34 15 0 32 4 38 9 17 16 163 20 175 4 13 -15 70 -18 85 -3 6 6 20 6 41 -2 36 -14 57 -2 67 35 3 12 29 47 58 77 64 67 106 148 115 221 3 31 13 63 24 74 23 26 39 69 39 105 0 23 -5 31 -25 36 -14 3 -36 3 -49 0 -22 -5 -26 -1 -44 46 -11 29 -25 80 -32 112 -7 33 -20 78 -30 102 -19 43 -17 54 8 54 34 0 122 93 122 130 0 5 -18 19 -40 30 -40 21 -99 25 -136 10z m114 -26 l37 -17 -31 -7 c-17 -4 -36 -10 -42 -13 -5 -4 -12 -1 -15 5 -3 10 -10 8 -25 -5 -11 -11 -26 -16 -33 -12 -7 5 -19 -2 -30 -16 -16 -21 -19 -21 -19 -6 0 31 20 58 53 72 42 19 60 18 105 -1z m-83 -94 c4 -6 -5 -10 -20 -10 -15 0 -24 4 -20 10 3 6 12 10 20 10 8 0 17 -4 20 -10z m-227 -21 c49 -24 95 -87 113 -154 6 -22 25 -80 42 -130 29 -81 32 -102 31 -200 0 -128 -15 -168 -90 -241 -139 -135 -366 -101 -460 68 -26 48 -29 61 -29 148 1 94 1 96 57 215 31 66 59 131 63 145 41 142 157 205 273 149z m-450 -371 c18 -18 15 -33 -4 -17 -13 10 -17 10 -24 -2 -7 -10 -12 -11 -21 -2 -6 6 -8 16 -5 22 9 15 39 14 54 -1z m-3 -76 c-6 -7 -35 18 -35 31 0 5 9 2 20 -8 11 -10 18 -20 15 -23z"/> <path d="M2117 1433 c-4 -3 -7 -22 -7 -40 0 -30 3 -34 23 -31 29 4 34 39 9 61 -10 9 -22 14 -25 10z"/> <path d="M2310 1416 c-16 -30 -6 -59 17 -54 13 2 18 14 20 41 1 43 -17 50 -37 13z"/> <path d="M2080 1359 c0 -5 5 -7 10 -4 6 3 10 8 10 11 0 2 -4 4 -10 4 -5 0 -10 -5 -10 -11z"/> <path d="M2365 1360 c3 -5 8 -10 11 -10 2 0 4 5 4 10 0 6 -5 10 -11 10 -5 0 -7 -4 -4 -10z"/> <path d="M2190 1351 c0 -17 50 -25 63 -11 10 10 8 12 -6 7 -10 -4 -27 -2 -38 3 -13 7 -19 7 -19 1z"/> <path d="M2154 1295 c-152 -67 -132 -316 28 -341 103 -17 194 35 218 125 40 149 -106 277 -246 216z m33 -12 c-4 -3 -10 -3 -14 0 -3 4 0 7 7 7 7 0 10 -3 7 -7z m-47 -61 c0 -5 -6 -16 -13 -27 -16 -20 -31 -7 -21 19 6 16 34 23 34 8z"/> <path d="M243 1537 c-44 -16 -71 -43 -56 -58 8 -8 19 -5 41 11 43 32 162 39 211 13 48 -25 73 -63 78 -120 5 -60 -18 -105 -77 -151 -39 -30 -49 -33 -99 -31 l-56 3 -12 -83 c-11 -79 -25 -113 -39 -98 -4 3 -3 95 2 204 9 188 10 198 29 198 18 0 20 -8 23 -92 l3 -93 34 0 c47 0 75 15 108 57 33 44 37 108 9 144 -20 24 -51 27 -199 18 -74 -4 -88 -14 -58 -39 16 -13 19 -147 6 -262 -5 -49 -8 -55 -21 -45 -17 13 -72 92 -82 117 -3 8 -24 25 -47 38 l-41 23 0 -52 c0 -44 5 -58 28 -83 l27 -31 -27 24 -28 24 0 -71 c0 -70 1 -72 27 -78 25 -7 105 5 146 21 13 6 17 2 17 -17 0 -28 17 -48 41 -48 30 0 68 39 74 75 17 113 13 105 48 105 77 1 179 83 193 155 4 21 4 62 1 92 -7 62 -38 105 -94 129 -39 17 -165 17 -210 1z m158 -117 c33 -18 25 -76 -15 -116 -19 -19 -39 -34 -44 -34 -10 0 -22 147 -13 156 8 8 52 4 72 -6z m-316 -310 c3 -5 4 -10 1 -10 -3 0 -8 5 -11 10 -3 6 -4 10 -1 10 3 0 8 -4 11 -10z"/> <path d="M3061 1528 c-24 -13 -58 -43 -75 -67 -26 -36 -31 -52 -31 -102 1 -51 5 -62 30 -90 17 -17 55 -43 85 -58 38 -18 56 -33 58 -48 4 -29 -33 -53 -83 -53 -23 0 -46 -5 -53 -12 -32 -32 5 -92 65 -104 48 -9 137 21 167 57 l26 31 0 -26 c0 -29 45 -68 73 -64 32 5 56 48 71 123 l13 70 7 -50 c18 -117 34 -145 84 -145 28 0 72 38 72 62 0 18 5 16 39 -15 68 -61 146 -59 209 6 79 81 83 253 8 302 -69 45 -162 31 -213 -32 -46 -58 -53 -77 -53 -138 0 -35 -4 -54 -10 -50 -5 3 -10 40 -10 81 0 121 -34 172 -106 161 l-34 -6 -1 57 c-1 106 -15 132 -70 132 -46 0 -54 -21 -57 -159 -1 -69 -5 -137 -8 -150 l-5 -24 -17 28 c-11 17 -46 43 -87 64 -57 30 -71 41 -73 63 -5 40 34 62 92 54 38 -6 47 -4 65 15 12 13 21 30 21 40 0 62 -117 90 -199 47z m151 -24 c4 -3 8 -13 8 -22 0 -15 -10 -18 -61 -17 -56 0 -63 -2 -90 -33 -55 -61 -36 -108 64 -155 79 -39 97 -61 97 -123 0 -45 -33 -92 -76 -110 -48 -20 -107 -18 -128 5 -16 18 -15 19 34 23 121 12 152 142 40 165 -47 9 -100 62 -107 106 -10 67 41 141 117 171 16 6 87 -1 102 -10z m148 -116 l0 -110 35 31 c78 68 113 18 114 -168 1 -61 4 -72 16 -67 21 8 19 -6 -5 -32 -21 -23 -45 -21 -54 5 -4 9 -9 57 -12 107 -7 116 -11 136 -29 136 -25 0 -46 -45 -66 -146 -11 -54 -22 -101 -25 -106 -7 -11 -32 -10 -39 2 -10 16 17 464 29 472 26 17 36 -15 36 -124z m450 -83 c31 -32 35 -41 35 -93 -1 -74 -34 -138 -90 -169 -40 -22 -41 -22 -82 -3 -45 20 -83 77 -83 125 0 46 39 121 78 149 54 38 99 35 142 -9z"/> <path d="M3670 1258 c-36 -60 -21 -162 26 -174 50 -13 94 43 94 118 0 59 -22 88 -66 88 -28 0 -38 -6 -54 -32z m80 -54 c0 -49 -16 -84 -40 -84 -18 0 -20 6 -20 60 0 46 4 61 17 69 25 14 43 -5 43 -45z"/> <path d="M897 1522 c-24 -27 -36 -98 -43 -258 -6 -127 -9 -141 -24 -137 -17 5 -30 63 -30 140 0 70 -36 103 -110 103 -77 0 -140 -42 -140 -93 0 -21 6 -30 20 -34 19 -5 18 -8 -14 -44 -61 -66 -57 -150 8 -190 38 -23 77 -24 117 -4 25 13 36 14 63 4 43 -16 79 -6 96 26 l14 25 28 -35 c39 -46 86 -49 129 -6 16 16 29 37 29 45 0 27 15 18 33 -20 19 -40 75 -69 113 -60 13 4 34 21 45 39 l22 33 27 -28 c38 -37 75 -45 129 -25 32 11 50 13 63 6 36 -20 81 -7 106 31 28 42 25 70 -8 87 -23 11 -25 19 -30 104 -5 84 -7 93 -33 115 -33 28 -104 33 -159 10 -44 -19 -78 -77 -59 -100 8 -9 20 -16 29 -16 11 0 8 -8 -13 -30 -18 -19 -39 -30 -56 -30 -18 0 -35 -9 -48 -26 l-21 -27 0 49 c0 73 7 88 53 110 22 10 45 27 51 36 15 25 -11 66 -45 73 -26 6 -29 11 -29 46 0 46 -27 79 -65 79 -30 0 -49 -28 -65 -92 -9 -34 -18 -49 -34 -54 -11 -3 -29 -14 -39 -22 -17 -16 -18 -13 -11 61 5 63 4 81 -10 102 -20 30 -65 34 -89 7z m63 -32 c7 -14 7 -39 0 -82 -5 -35 -10 -125 -10 -200 0 -114 3 -138 14 -138 8 0 22 10 30 22 20 29 21 6 1 -32 -21 -40 -54 -49 -77 -20 -41 50 -47 134 -23 310 22 154 38 190 65 140z m203 -78 l-3 -62 43 2 c60 4 57 -22 -5 -42 l-48 -15 0 -107 c0 -62 4 -109 10 -113 6 -4 24 8 41 26 16 17 32 29 35 27 3 -3 -5 -28 -18 -54 -29 -61 -64 -71 -103 -28 -24 25 -25 33 -25 140 l0 113 -27 3 c-39 4 -35 30 5 40 17 5 32 14 32 21 0 8 7 37 16 66 11 39 19 51 32 49 14 -3 17 -14 15 -66z m-423 -90 c19 -15 23 -30 27 -107 6 -125 9 -138 33 -130 24 8 25 -3 4 -33 -19 -28 -29 -28 -60 3 l-25 26 -30 -26 c-58 -48 -139 -19 -139 50 0 46 26 74 96 106 64 29 75 45 55 78 -9 14 -64 12 -105 -5 -29 -11 -10 14 28 37 39 24 87 24 116 1z m740 -2 c16 -16 20 -34 21 -82 0 -35 4 -83 7 -108 6 -38 11 -45 29 -43 16 2 20 -2 16 -17 -12 -44 -48 -47 -82 -6 -12 14 -17 13 -43 -9 -34 -29 -82 -33 -116 -9 -17 11 -22 25 -22 56 0 34 6 46 35 74 20 18 54 38 75 44 37 10 40 13 40 46 l0 36 -42 -4 c-24 -3 -52 -8 -62 -13 -30 -13 -10 13 28 36 41 25 91 24 116 -1z m-430 -119 c0 -53 -2 -62 -16 -57 -9 3 -24 6 -35 6 -21 0 -24 22 -13 102 l6 46 29 -17 c27 -15 29 -20 29 -80z m-403 52 c-4 -3 -10 -3 -14 0 -3 4 0 7 7 7 7 0 10 -3 7 -7z m740 0 c-4 -3 -10 -3 -14 0 -3 4 0 7 7 7 7 0 10 -3 7 -7z"/> <path d="M631 1171 c-25 -25 -29 -89 -7 -97 8 -3 28 2 45 10 31 16 46 48 39 83 -5 27 -52 29 -77 4z m31 -43 c-7 -7 -12 -8 -12 -2 0 14 12 26 19 19 2 -3 -1 -11 -7 -17z"/> <path d="M1372 1174 c-16 -11 -22 -25 -22 -54 0 -46 12 -56 49 -40 33 13 48 43 43 83 -4 32 -34 37 -70 11z m38 -33 c0 -6 -4 -13 -10 -16 -5 -3 -10 1 -10 9 0 9 5 16 10 16 6 0 10 -4 10 -9z"/> <path d="M4260 1475 c-88 -18 -159 -65 -99 -65 25 0 73 -48 112 -114 16 -25 42 -53 57 -61 37 -19 133 -30 155 -18 15 9 11 14 -26 36 -24 15 -71 52 -104 83 -63 59 -53 54 60 -33 37 -29 72 -53 76 -53 5 0 9 25 9 56 0 123 -105 197 -240 169z"/> <path d="M3995 1360 c-11 -4 -30 -6 -42 -3 -13 3 -29 -3 -41 -15 -17 -17 -20 -39 -26 -193 -3 -96 -9 -197 -12 -226 -6 -47 -4 -53 19 -67 50 -33 107 22 107 103 0 45 8 58 33 54 35 -6 109 38 142 85 26 38 30 52 30 111 0 76 -16 110 -68 141 -33 21 -105 26 -142 10z m136 -48 c27 -24 33 -37 37 -84 5 -64 -21 -126 -65 -155 -27 -18 -86 -23 -114 -9 -15 6 -18 -3 -24 -74 -7 -76 -21 -110 -46 -110 -10 0 -5 272 7 388 5 52 6 53 32 47 17 -3 35 0 47 9 34 26 90 20 126 -12z"/> <path d="M4000 1287 c-23 -12 -25 -18 -25 -90 0 -84 7 -97 57 -97 42 0 78 50 78 111 0 77 -46 109 -110 76z m70 -48 c6 -11 8 -33 5 -50 -7 -30 -41 -62 -57 -53 -10 6 -11 108 -1 117 13 14 43 6 53 -14z"/> <path d="M4311 906 c16 -28 19 -48 17 -123 -3 -104 11 -142 72 -186 62 -44 72 -37 45 31 -13 31 -25 80 -29 107 -5 46 -4 44 13 -20 24 -88 51 -155 62 -155 5 0 9 67 9 148 0 141 -1 150 -22 169 -27 24 -128 63 -163 63 l-24 0 20 -34z m96 -108 c-3 -8 -6 -5 -6 6 -1 11 2 17 5 13 3 -3 4 -12 1 -19z"/> <path d="M716 722 c-7 -31 -44 -71 -86 -92 -83 -43 -110 -89 -109 -185 l0 -50 17 25 c9 14 46 54 81 90 l65 65 -68 -98 c-64 -93 -95 -157 -76 -157 5 0 12 5 16 11 3 6 39 26 79 44 73 34 94 54 130 125 29 56 18 152 -26 223 l-17 29 -6 -30z"/> <path d="M1700 726 c0 -28 -49 -80 -101 -106 -57 -30 -87 -72 -94 -135 -11 -84 -1 -97 36 -42 16 25 51 62 77 83 26 21 42 32 36 24 -66 -89 -99 -139 -120 -179 -30 -61 -30 -70 -1 -44 12 11 50 33 84 48 79 35 99 55 83 86 -15 27 -8 91 15 144 l17 40 10 -27 c11 -31 28 -37 28 -10 0 19 -56 142 -65 142 -3 0 -5 -11 -5 -24z"/> <path d="M3075 725 c-11 -41 -20 -51 -99 -103 -80 -53 -98 -86 -94 -168 l3 -55 40 55 c22 31 44 56 48 56 4 0 26 19 49 43 23 23 34 33 25 22 -9 -11 -30 -41 -47 -65 -72 -103 -98 -146 -105 -167 -6 -21 0 -19 77 20 92 47 120 72 150 135 27 55 21 138 -15 208 l-25 49 -7 -30z"/> <path d="M3567 744 c-4 -4 -7 -17 -7 -29 0 -23 -49 -73 -92 -94 -15 -8 -40 -28 -57 -45 -27 -28 -31 -40 -36 -106 l-6 -75 23 30 c13 16 52 59 87 95 l65 65 -55 -79 c-79 -115 -89 -131 -99 -167 l-9 -32 22 20 c12 12 51 35 87 52 104 52 153 124 143 212 -6 56 -53 165 -66 153z"/> <path d="M4060 727 c0 -25 -57 -84 -102 -106 -15 -8 -41 -28 -58 -46 -27 -28 -32 -41 -37 -103 -3 -40 -2 -72 3 -72 5 0 19 18 31 39 12 21 46 58 74 82 l52 44 -53 -75 c-50 -69 -100 -158 -100 -176 0 -4 10 2 23 14 12 11 52 34 88 50 67 30 98 61 134 131 21 43 14 115 -20 188 -26 58 -35 65 -35 30z"/> <path d="M1201 709 c-12 -34 -41 -62 -86 -84 -60 -28 -87 -60 -96 -112 -4 -26 -8 -64 -8 -83 l-1 -35 27 35 c15 19 57 64 93 100 l65 65 -40 -55 c-21 -30 -52 -71 -67 -92 -47 -60 -78 -148 -40 -116 9 9 46 29 82 45 105 47 157 135 140 236 -8 54 -38 127 -51 127 -4 0 -12 -14 -18 -31z"/> <path d="M129 710 c-35 -10 -82 -45 -108 -81 l-22 -29 58 5 58 5 -50 -14 c-27 -8 -53 -15 -57 -16 -5 0 -8 -11 -8 -23 0 -22 8 -26 88 -45 87 -22 100 -22 183 5 14 4 39 24 55 43 32 38 89 149 80 157 -3 3 -18 -4 -34 -16 -31 -22 -46 -21 -167 9 -46 11 -41 11 -76 0z m54 -97 c-13 -2 -33 -2 -45 0 -13 2 -3 4 22 4 25 0 35 -2 23 -4z"/> <path d="M2110 654 c0 -29 -40 -73 -91 -100 -27 -15 -58 -42 -69 -59 -23 -37 -44 -129 -35 -152 5 -14 9 -12 24 13 26 42 148 170 155 163 4 -4 -13 -30 -36 -59 -89 -109 -128 -170 -128 -200 0 -17 158 73 191 110 55 60 66 162 28 251 -21 49 -39 64 -39 33z"/> <path d="M2580 649 c0 -23 -45 -69 -108 -111 -58 -38 -74 -67 -79 -146 -4 -62 -3 -66 12 -47 97 123 165 192 165 167 0 -5 -26 -40 -58 -79 -67 -78 -112 -151 -112 -178 0 -17 2 -17 23 2 12 12 40 28 62 38 104 42 147 95 159 197 6 50 4 65 -20 118 -27 61 -44 76 -44 39z"/> </g> </svg> 